<?xml version="1.0"?>
<svg width="32" height="32" xmlns="http://www.w3.org/2000/svg" xmlns:svg="http://www.w3.org/2000/svg">
 <g>
  <title>Layer 1</title>
  <g id="svg_1">
   <circle cx="16.042" cy="16" fill="#2ecc71" r="16" id="svg_2"/>
   <path d="m16.042,32c8.837,0 16,-7.163 16,-16s-7.163,-16 -16,-16s-16,7.163 -16,16s7.163,16 16,16zm0,-30c7.732,0 14,6.268 14,14s-6.268,14 -14,14s-14,-6.268 -14,-14s6.268,-14 14,-14z" opacity="0.15" id="svg_3"/>
   <path d="m23.437,10.545c-0.781,-0.781 -2.146,-0.682 -2.927999,0.1l-6.526001,6.525999l-2.558,-2.556999c-0.78,-0.781 -2.122,-0.856 -2.903,-0.075001s-0.633,2.196001 0.148,2.977001l3.898,3.897999c0.78,0.781 2.047,0.781 2.828,0l8.078001,-8.079c0.780998,-0.781 0.743999,-2.01 -0.037001,-2.79z" fill="#FFFFFF" id="svg_4"/>
  </g>
  <g id="svg_5"/>
  <g id="svg_6"/>
  <g id="svg_7"/>
  <g id="svg_8"/>
  <g id="svg_9"/>
  <g id="svg_10"/>
 </g>
</svg>