<?xml version="1.0"?>
<svg width="50" height="50" xmlns="http://www.w3.org/2000/svg" xmlns:svg="http://www.w3.org/2000/svg">
 <g>
  <title>Layer 1</title>
  <g stroke="null" id="svg_1">
   <circle stroke="null" id="svg_2" r="24.923829" fill="#2ecc71" cy="24.923828" cx="24.965828"/>
   <path stroke="null" id="svg_3" opacity="0.15" d="m24.965828,49.847656c13.765739,0 24.923828,-11.158089 24.923828,-24.923828s-11.158089,-24.923828 -24.923828,-24.923828s-24.923828,11.158087 -24.923828,24.923828s11.158086,24.923828 24.923828,24.923828zm0,-46.732178c12.044441,0 21.80835,9.763908 21.80835,21.80835s-9.763908,21.80835 -21.80835,21.80835s-21.808349,-9.763908 -21.808349,-21.80835s9.76391,-21.80835 21.808349,-21.80835z"/>
   <path stroke="null" id="svg_4" fill="#FFFFFF" d="m36.48531,16.426359c-1.216591,-1.216594 -3.342911,-1.062377 -4.56106,0.155777l-10.165808,10.165804l-3.984695,-3.983139c-1.215036,-1.216595 -3.305522,-1.333424 -4.522117,-0.116831s-0.986049,3.420797 0.230545,4.637392l6.072066,6.072067c1.215036,1.216595 3.188692,1.216595 4.405289,0l12.58342,-12.584978c1.216591,-1.216595 1.158951,-3.131056 -0.05764,-4.346092l0,0z"/>
  </g>
  <g id="svg_5"/>
  <g id="svg_6"/>
  <g id="svg_7"/>
  <g id="svg_8"/>
  <g id="svg_9"/>
  <g id="svg_10"/>
 </g>
</svg>